#!OML:ASF F:\VICON\USERDATA\INSTALL\rory3\rory3.ASF
:FULLY-SPECIFIED
:DEGREES
982
root -6.06765 17.6711 3.53302 9.35149 36.9366 5.88943
lowerback 9.85104 0.539875 -0.13274
upperback 2.98 0.841815 3.00303
thorax -2.47208 0.434499 3.08998
lowerneck -17.9939 4.19895 -7.40802
upperneck 36.4367 11.9772 -5.49089
head 16.1148 3.39222 1.20002
rclavicle 5.1684e-015 -4.77083e-015
rhumerus -27.5675 2.31051 -71.5114
rradius 30.2273
rwrist 27.4945
rhand -24.4502 5.85483
rfingers 7.12502
rthumb 2.04254 -24.1151
lclavicle 5.1684e-015 -4.77083e-015
lhumerus -28.4467 11.4431 81.9501
lradius 38.6408
lwrist -15.1545
lhand -15.7033 21.8211
lfingers 7.12502
lthumb 10.4864 51.5395
rfemur -19.1717 0.424201 13.1962
rtibia 38.0556
rfoot -19.1998 0.218095
rtoes 2.09741
lfemur -27.5018 -6.74317 -10.9103
ltibia 33.1813
lfoot -6.49631 -7.03872
ltoes -24.3342
983
root -6.13743 17.6885 3.54242 9.50447 37.5747 6.03826
lowerback 9.89789 0.566529 -0.114872
upperback 2.8261 0.881418 2.97709
thorax -2.65923 0.456091 3.04757
lowerneck -18.0056 4.23416 -7.38884
upperneck 36.535 12.0086 -5.37347
head 16.1545 3.42228 1.25506
rclavicle 6.36111e-015 -1.59028e-015
rhumerus -27.9627 1.64771 -71.0302
rradius 30.3357
rwrist 27.2559
rhand -24.5574 5.68145
rfingers 7.12502
rthumb 1.93902 -24.2895
lclavicle 6.36111e-015 -1.59028e-015
lhumerus -28.9215 11.1924 82.0177
lradius 38.1132
lwrist -15.5066
lhand -15.7942 21.0713
lfingers 7.12502
lthumb 10.3987 50.7941
rfemur -19.1911 0.310946 13.4146
rtibia 38.0632
rfoot -19.3355 -0.478617
rtoes 2.09162
lfemur -27.6025 -6.04916 -11.9348
ltibia 34.0043
lfoot -6.3275 -6.61799
ltoes -19.2271
984
root -6.20686 17.6947 3.54923 9.62782 38.2207 6.08072
lowerback 10.0535 0.584609 0.0842255
upperback 2.54217 0.929666 2.89973
thorax -3.03841 0.482302 2.847
lowerneck -17.7973 4.30314 -7.22018
upperneck 36.6353 12.0084 -5.25036
head 16.149 3.47027 1.27395
rclavicle -2.38542e-015 -1.27222e-014
rhumerus -28.573 0.881931 -70.6344
rradius 30.5112
rwrist 26.9858
rhand -24.3881 5.41059
rfingers 7.12502
rthumb 2.10255 -24.5588
lclavicle -2.38542e-015 -1.27222e-014
lhumerus -29.5391 11.3995 81.7508
lradius 37.317
lwrist -16.3645
lhand -15.6602 20.8674
lfingers 7.12502
lthumb 10.5279 50.5837
rfemur -19.2628 0.317087 13.707
rtibia 38.0478
rfoot -19.4601 -1.21271
rtoes 2.06696
lfemur -27.5341 -5.2853 -12.8413
ltibia 34.7473
lfoot -6.25159 -6.22876
ltoes -15.8393
985
root -6.27653 17.6934 3.55771 9.70543 38.8648 6.08214
lowerback 10.0295 0.571557 0.100712
upperback 2.3993 0.917753 2.93157
thorax -3.17337 0.477699 2.87239
lowerneck -17.5305 4.39963 -6.85272
upperneck 36.4957 12.0767 -5.49311
head 16.062 3.53856 1.11319
rclavicle 4.49253e-014 2.8625e-014
rhumerus -28.9263 0.286407 -70.2093
rradius 30.6285
rwrist 26.567
rhand -24.1906 5.18374
rfingers 7.12502
rthumb 2.2933 -24.7837
lclavicle 4.49253e-014 2.8625e-014
lhumerus -30.0099 11.8734 81.5748
lradius 36.6486
lwrist -17.1656
lhand -15.3009 21.2882
lfingers 7.12502
lthumb 10.8745 50.9867
rfemur -19.3962 0.481868 14.0189
rtibia 38.1831
rfoot -19.7301 -1.88242
rtoes 2.50623
lfemur -27.3154 -4.61488 -13.6064
ltibia 35.445
lfoot -6.79326 -5.99118
ltoes -15.9162
986
root -6.34507 17.6828 3.56842 9.68961 39.5107 6.05536
lowerback 9.88832 0.524419 -0.0472522
upperback 2.42496 0.844171 3.07502
thorax -3.06912 0.442372 3.11588
lowerneck -17.526 4.49038 -6.72814
upperneck 36.3386 12.2386 -5.71106
head 16.0145 3.6052 1.02965
rclavicle 6.36111e-015 9.54166e-015
rhumerus -28.9463 -0.159001 -69.742
rradius 30.7112
rwrist 26.1849
rhand -24.1767 5.05051
rfingers 7.12502
rthumb 2.30667 -24.9168
lclavicle 6.36111e-015 9.54166e-015
lhumerus -30.2938 12.423 81.6084
lradius 36.1693
lwrist -17.4029
lhand -14.7925 21.9804
lfingers 7.12502
lthumb 11.3649 51.6525
rfemur -19.472 0.601122 14.3721
rtibia 38.3981
rfoot -20.0724 -2.56342
rtoes 2.78012
lfemur -26.9421 -4.12442 -14.2291
ltibia 36.1007
lfoot -7.53824 -5.75852
ltoes -16.4523
